<svg xmlns="http://www.w3.org/2000/svg" width="192" height="192" viewBox="0 0 192 192"><defs><style>.a{fill:red;}.b{fill:#fff;}</style></defs><rect class="a" width="192" height="192" rx="18"/><path class="b" d="M159.24,64a16.58,16.58,0,0,0-11.67-11.74C137.28,49.5,96,49.5,96,49.5s-41.28,0-51.57,2.78A16.58,16.58,0,0,0,32.76,64C30,74.38,30,96,30,96s0,21.62,2.76,32a16.58,16.58,0,0,0,11.67,11.74C54.72,142.5,96,142.5,96,142.5s41.28,0,51.57-2.78A16.58,16.58,0,0,0,159.24,128C162,117.62,162,96,162,96S162,74.38,159.24,64Z"/><polygon class="a" points="82.5 115.63 117 96 82.5 76.37 82.5 115.63"/></svg>