<?xml version="1.0" encoding="utf-8"?>
<!-- Generator: Adobe Illustrator 24.1.0, SVG Export Plug-In . SVG Version: 6.00 Build 0)  -->
<svg version="1.1" id="レイヤー_1" xmlns="http://www.w3.org/2000/svg" xmlns:xlink="http://www.w3.org/1999/xlink" x="0px"
	 y="0px" viewBox="0 0 16 16" style="enable-background:new 0 0 16 16;" xml:space="preserve">
<style type="text/css">
	.st0{fill:#0099D9;}
	.st1{fill:#FFE100;}
	.st2{fill:#FA422B;}
	.st3{fill:#55417D;}
	.st4{fill:#FFAE21;}
	.st5{fill:#20C960;}
	.st6{fill:#5DD9CB;}
	.st7{fill:#188EBD;}
	.st8{fill:none;stroke:#000000;stroke-width:2;stroke-linecap:round;stroke-linejoin:round;stroke-miterlimit:10;}
	.st9{fill:none;}
	.st10{fill:#1877F2;}
	.st11{fill:#FFFFFF;}
	.st12{fill:none;stroke:#000000;stroke-width:2;stroke-linecap:round;stroke-linejoin:round;}
	.st13{fill:none;stroke:#231815;stroke-width:2;stroke-linecap:round;stroke-linejoin:round;}
	.st14{fill:#1F286F;}
	.st15{fill:none;stroke:#000000;stroke-width:2.2;stroke-linecap:round;stroke-linejoin:round;stroke-miterlimit:10;}
	.st16{fill:#000066;}
	.st17{enable-background:new    ;}
	.st18{fill:#1DA1F2;}
	.st19{fill:#FF0000;}
</style>
<rect id="長方形_2140_1_" class="st9" width="16" height="16"/>
<g id="グループ_3146_1_" transform="translate(2.071 2.071)">
	<path id="パス_868_2_" class="st11" d="M11.68,5.41c-0.29,0-0.52-0.23-0.52-0.52c0,0,0,0,0,0V0.7H6.97
		c-0.29-0.01-0.51-0.26-0.5-0.55c0.01-0.27,0.23-0.49,0.5-0.5h4.7c0.29,0,0.52,0.23,0.52,0.52v0v4.7
		C12.2,5.17,11.97,5.41,11.68,5.41z"/>
	<path id="パス_869_2_" class="st11" d="M9.59,12.2H0.18c-0.29,0-0.52-0.23-0.52-0.52c0,0,0,0,0,0v-9.4
		c0-0.29,0.23-0.52,0.52-0.52c0,0,0,0,0,0h4.18c0.29-0.01,0.53,0.21,0.55,0.5c0.01,0.29-0.21,0.53-0.5,0.55c-0.02,0-0.03,0-0.05,0
		H0.7v8.36h8.36V7.5C9.08,7.21,9.32,6.98,9.61,7c0.27,0.01,0.49,0.23,0.5,0.5v4.18C10.11,11.97,9.88,12.2,9.59,12.2z"/>
	<path id="パス_870_2_" class="st11" d="M5.41,6.97c-0.29,0-0.52-0.24-0.52-0.52c0-0.14,0.06-0.27,0.15-0.37l5.75-5.75
		c0.2-0.2,0.53-0.2,0.74,0s0.2,0.53,0,0.74L5.77,6.82C5.68,6.92,5.54,6.97,5.41,6.97z"/>
</g>
</svg>
