<svg xmlns="http://www.w3.org/2000/svg" width="18" height="18" viewBox="0 0 18 18">
  <g id="グループ_2331" data-name="グループ 2331" transform="translate(-640 -166.954)">
    <rect id="長方形_1438" data-name="長方形 1438" width="18" height="18" transform="translate(640 166.954)" fill="none"/>
    <path id="パス_861" data-name="パス 861" d="M654.014,186.572H643.623a.623.623,0,0,1,0-1.247h8.886l-2.261-2.261a.624.624,0,0,1,.882-.882l3.325,3.325a.624.624,0,0,1-.441,1.064Z" transform="translate(-1.753 -8.961)" fill="#1f286f"/>
    <path id="パス_862" data-name="パス 862" d="M665.267,185.714h-9.144a.624.624,0,0,1-.623-.623V182.6a.623.623,0,0,1,1.247,0v1.87h7.9V172.414h-7.9v1.87a.623.623,0,0,1-1.247,0V171.79a.623.623,0,0,1,.623-.623h9.144a.623.623,0,0,1,.623.623v13.3A.624.624,0,0,1,665.267,185.714Z" transform="translate(-9.058 -2.63)" fill="#1f286f"/>
  </g>
</svg>
