<svg id="perm_phone_msg-24px" xmlns="http://www.w3.org/2000/svg" width="20" height="20" viewBox="0 0 20 20">
  <path id="パス_64" data-name="パス 64" d="M0,0H20V20H0Z" fill="none"/>
  <path id="パス_65" data-name="パス 65" d="M16.743,13.38l-2.15-.245a1.685,1.685,0,0,0-1.388.483l-1.558,1.558A12.736,12.736,0,0,1,6.068,9.6L7.635,8.03a1.685,1.685,0,0,0,.483-1.388L7.872,4.508a1.694,1.694,0,0,0-1.685-1.5H4.722A1.68,1.68,0,0,0,3.029,4.762,14.384,14.384,0,0,0,16.481,18.214a1.68,1.68,0,0,0,1.752-1.693V15.056A1.678,1.678,0,0,0,16.743,13.38Z" transform="translate(-0.621 -0.623)" fill="#fff"/>
</svg>
