<svg id="perm_phone_msg-24px" xmlns="http://www.w3.org/2000/svg" width="24" height="24" viewBox="0 0 24 24">
  <path id="パス_64" data-name="パス 64" d="M0,0H24V24H0Z" fill="none"/>
  <path id="パス_65" data-name="パス 65" d="M19.487,15.454l-2.58-.295a2.022,2.022,0,0,0-1.666.579l-1.869,1.869a15.284,15.284,0,0,1-6.694-6.694L8.556,9.034a2.022,2.022,0,0,0,.579-1.666l-.295-2.56a2.033,2.033,0,0,0-2.022-1.8H5.062a2.016,2.016,0,0,0-2.032,2.1A17.261,17.261,0,0,0,19.172,21.254a2.016,2.016,0,0,0,2.1-2.032V17.465A2.013,2.013,0,0,0,19.487,15.454Z" transform="translate(-0.139 -0.145)" fill="#1f286f"/>
</svg>
